inDegrees=no
num_controls=7
num_derivatives=13
num_iterations=138
num_multipliers=7
num_parameters=0
num_slacks=7
num_states=26
objective=0.548758
objective_accelerations=0.038754
objective_balance=0.003225
objective_effort=0.036940
objective_height=0.460515
objective_ligament=0.009324
solver_duration=1713.773161
status=Solve_Succeeded
success=true
DataType=double
version=3
OpenSimVersion=4.5
endheader
time	/jointset/ground_pelvis/pelvis_tilt/value	/jointset/ground_pelvis/pelvis_tx/value	/jointset/ground_pelvis/pelvis_ty/value	/jointset/hip_r/hip_flexion_r/value	/jointset/hip_r/hip_adduction_r/value	/jointset/hip_r/hip_rotation_r/value	/jointset/back/lumbar_extension/value	/jointset/patellofemoral_r/patellar_flexion_r/value	/jointset/knee_r/knee_flexion_r/value	/jointset/knee_r/knee_adduction_r/value	/jointset/knee_r/knee_rotation_r/value	/jointset/ankle_r/ankle_angle_r/value	/jointset/subtalar_r/subtalar_angle_r/value	/jointset/ground_pelvis/pelvis_tilt/speed	/jointset/ground_pelvis/pelvis_tx/speed	/jointset/ground_pelvis/pelvis_ty/speed	/jointset/hip_r/hip_flexion_r/speed	/jointset/hip_r/hip_adduction_r/speed	/jointset/hip_r/hip_rotation_r/speed	/jointset/back/lumbar_extension/speed	/jointset/patellofemoral_r/patellar_flexion_r/speed	/jointset/knee_r/knee_flexion_r/speed	/jointset/knee_r/knee_adduction_r/speed	/jointset/knee_r/knee_rotation_r/speed	/jointset/ankle_r/ankle_angle_r/speed	/jointset/subtalar_r/subtalar_angle_r/speed	/forceset/tau_hip_flexion_r	/forceset/tau_hip_adduction_r	/forceset/tau_hip_rotation_r	/forceset/tau_knee_flexion_r	/forceset/tau_ankle_angle_r	/forceset/tau_subtalar_angle_r	/forceset/tau_lumbar_extension	lambda_cid13_p0	lambda_cid14_p0	lambda_cid14_p1	lambda_cid14_p2	lambda_cid14_p3	lambda_cid14_p4	lambda_cid14_p5	/jointset/ground_pelvis/pelvis_tilt/accel	/jointset/ground_pelvis/pelvis_tx/accel	/jointset/ground_pelvis/pelvis_ty/accel	/jointset/hip_r/hip_flexion_r/accel	/jointset/hip_r/hip_adduction_r/accel	/jointset/hip_r/hip_rotation_r/accel	/jointset/back/lumbar_extension/accel	/jointset/patellofemoral_r/patellar_flexion_r/accel	/jointset/knee_r/knee_flexion_r/accel	/jointset/knee_r/knee_adduction_r/accel	/jointset/knee_r/knee_rotation_r/accel	/jointset/ankle_r/ankle_angle_r/accel	/jointset/subtalar_r/subtalar_angle_r/accel	gamma_cid13_p0	gamma_cid14_p0	gamma_cid14_p1	gamma_cid14_p2	gamma_cid14_p3	gamma_cid14_p4	gamma_cid14_p5
0.5	-0.1454253960986989	0.0273386432692301	0.8559292275586021	0.7748996677210198	-0.2282746810129274	-0.1348122027858883	-0.3261248468964482	0.6838725336501997	0.68387253365018	0.03826099835961294	0.1745238043218868	0.2241021651021399	0.0477654144248939	-0.3901079457730345	-0.142541683666969	-0.3505654860777522	1.618066847686089	-0.00357587509579484	0.2567198150743784	-0.5982216540741419	1.650095773418998	1.650095773418997	-0.2810932884030179	1.389205874155854e-06	0.5075204561070793	0.1334843225486062	-0.1057460590399237	-0.02171163151232638	0.008424466207256301	-0.3302954628729579	0.09164293340278108	-0.01049329776042548	0.1561518313384222	-32.24546184315231	-12.88488123557507	-2.736794177141218	-3.760049017952299	0.5277548904961954	-669.9576548325404	60.37223430284443	0.1650567891154581	0.3880350349583163	-0.3375564437722287	-1.038171061783517	-0.04746990133626723	-0.5203814149243651	1.466452179270794	-1.136239727618447	-1.136239727618446	0.4275071301229714	0.006111348107070815	-0.394899305724328	-0.08112541262801498	-1.104118393440412e-07	-1.666101026268052e-07	4.307500149744162e-07	-1.221410933762705e-06	5.804480288663839e-08	-2.261634796864905e-07	6.331663053326142e-07
0.51	-0.1493174896446176	0.02593276919751273	0.8524074753153892	0.7910258428675181	-0.2283136535049576	-0.1322697327900342	-0.3320331493737254	0.7003142077069578	0.7003142077069342	0.03547408660465022	0.1745239553997614	0.229156565687649	0.04909478306313039	-0.3882526797712141	-0.1386213965752154	-0.3537065518622178	1.6069471451813	-0.004224810298241159	0.2518034781196811	-0.5833640807504902	1.638007971168797	1.638007971168799	-0.276234845172994	1.127923560556048e-05	0.5032828199413695	0.1323558445017695	-0.1120684424208596	-0.02000256532021535	0.009102738062569334	-0.3326454978676596	0.08778844053809486	-0.009948851846070956	0.1617155006732569	-31.31082690409259	-14.28552734341449	-2.851029155782198	-3.621393109720938	1.151179395575271	-673.4287387348398	60.14072852429545	0.2044598130649154	0.3957976160900241	-0.2906651163020156	-1.182044405993911	-0.07468768486366881	-0.4730497367569246	1.506624003480253	-1.279688999229516	-1.279688999228955	0.5231461731695745	-0.004424404547945461	-0.4497290457261409	-0.1338192900055456	-8.957953423624534e-08	-9.833410367931401e-08	6.053357242702957e-07	-7.219514965036358e-07	-4.597256885485464e-09	-1.552726508256317e-07	5.587216913983954e-07
0.52	-0.153189290869047	0.02456645241067423	0.8488566557202277	0.8070341860767353	-0.2283593318200466	-0.1297755841439291	-0.3377906332988524	0.7166280760361113	0.7166280760360839	0.03273738593273221	0.1745236349309458	0.2341662832567547	0.05041184486303966	-0.3860494814754157	-0.1346302266911955	-0.3563789564674193	1.594500460229821	-0.004917039707280024	0.2470555451244017	-0.5680579436441271	1.624534627898256	1.624534627898262	-0.2710510717938704	-9.2920132828015e-05	0.4985838528263871	0.1310229548831712	-0.118390825801799	-0.01829349912810665	0.009781009917909146	-0.3349955328623622	0.08393394767340773	-0.009404405931719779	0.1672791700080888	-30.36634544813575	-15.69067330316984	-2.963051360511017	-3.486518146309064	1.7611438877274	-676.9780650174937	59.97618940567644	0.2346432479110213	0.4022115934116318	-0.2438242079194106	-1.303567551121453	-0.05612874265477452	-0.4867006230408017	1.556164935813096	-1.413347931686194	-1.413347931686186	0.4925731599429163	-0.01670653152591792	-0.4871654955787934	-0.1220077269802993	-5.348320075431286e-08	3.561792532077367e-08	9.93378562743631e-07	2.456906646644474e-07	-1.346507337695163e-07	-1.362797251346899e-08	4.533851257011081e-07
0.53	-0.1570375638151885	0.02324041032891296	0.8452814825351405	0.822911820616515	-0.2284113976255307	-0.127331258954208	-0.3433927880217783	0.7328004547989175	0.7328004547989345	0.03005081591771934	0.1745234754679381	0.239127059728617	0.0517156630956636	-0.3835549347493084	-0.1305633568475802	-0.3585726032416988	1.580805357174208	-0.005507381659405725	0.2418559288081698	-0.5523121176211893	1.609712259300087	1.609712259300084	-0.2661929864476498	3.290437738857828e-05	0.4935035322570901	0.1297023346769649	-0.1242090091458841	-0.01703001327848404	0.01044120543815751	-0.3382065295776935	0.08130581173082239	-0.008957768128754026	0.1724779660055824	-29.41625248379422	-16.71034795876079	-3.053426351965496	-3.351247510896063	2.069278899729126	-680.6278529417573	59.94511129943632	0.2643937242258186	0.4111090096082148	-0.1946611616736852	-1.435634396743408	-0.06195237066537584	-0.5296246769106835	1.592923933461632	-1.551004223628723	-1.551004223630059	0.4931279459430841	0.023156495481251	-0.528685838375085	-0.1425656039409311	-2.697946272535687e-08	1.296405970788997e-07	1.256319611637214e-06	9.193210627963843e-07	-2.253608536008772e-07	8.494569525469897e-08	3.942296434357082e-07
